# xmcd
#
# Track frame offsets: 
#        150
#        14537
#        28506
#        38381
#        51334
#        68470
#        82006
#        96853
#
# Disc length: 1430 seconds
#
# Revision: 0
# Processed by: cddbd v1.5.2PL0 Copyright (c) Steve Scherf et al.
# Submitted via: ExactAudioCopy v0.99pb4
#
DISCID=59059408
DTITLE=Miky King - Miky Song
DYEAR=2000
DGENRE=Instrumental
TTITLE0=Besame mucho
TTITLE1=Spanish Eyes
TTITLE2=Rock around the clock
TTITLE3=Micky King Special
TTITLE4=Kad ja podjoh na Bembasu
TTITLE5=Jesenje lisce
TTITLE6=Adios
TTITLE7=Vaya con Dios
EXTD=
EXTT0=
EXTT1=
EXTT2=
EXTT3=
EXTT4=
EXTT5=
EXTT6=
EXTT7=
PLAYORDER=
